<?xml version="1.0" standalone="no"?>
<!DOCTYPE svg PUBLIC "-//W3C//DTD SVG 20010904//EN"
 "http://www.w3.org/TR/2001/REC-SVG-20010904/DTD/svg10.dtd">
<svg version="1.0" xmlns="http://www.w3.org/2000/svg"
 width="880.000000pt" height="920.000000pt" viewBox="0 0 880.000000 920.000000"
 preserveAspectRatio="xMidYMid meet">

<g transform="translate(0.000000,920.000000) scale(0.100000,-0.100000)"
fill="#000000" stroke="none">
<path d="M1642 8793 c207 -2 549 -2 760 0 211 1 41 2 -377 2 -418 0 -590 -1
-383 -2z"/>
<path d="M5973 8779 c-104 -51 -159 -170 -117 -254 8 -16 12 -21 8 -10 -30 99
4 191 93 247 l38 23 775 5 775 5 -765 3 c-759 2 -765 2 -807 -19z"/>
<path d="M1208 8783 c6 -2 18 -2 25 0 6 3 1 5 -13 5 -14 0 -19 -2 -12 -5z"/>
<path d="M2832 8765 c85 -45 134 -143 110 -221 -15 -49 -8 -57 8 -9 31 93 -42
223 -140 249 -14 4 -4 -5 22 -19z"/>
<path d="M7639 8769 c47 -10 86 -17 89 -15 5 5 -132 36 -155 35 -10 0 20 -9
66 -20z"/>
<path d="M1105 8765 c-53 -17 -34 -18 35 0 30 7 44 13 30 13 -14 0 -43 -5 -65
-13z"/>
<path d="M977 8720 c-64 -27 -167 -87 -167 -97 0 -2 19 8 43 22 36 23 82 46
187 92 14 7 21 12 15 12 -5 0 -41 -13 -78 -29z"/>
<path d="M7740 8747 c3 -2 38 -18 77 -35 217 -90 421 -299 504 -516 25 -63 37
-71 15 -9 -74 209 -276 426 -490 523 -60 28 -116 47 -106 37z"/>
<path d="M704 8538 c-47 -46 -95 -96 -106 -113 -11 -16 5 -2 36 32 31 34 82
85 114 112 31 28 54 51 49 51 -4 0 -46 -37 -93 -82z"/>
<path d="M2891 8455 c-70 -75 -11 -69 -851 -75 l-755 -6 755 1 755 0 47 28
c26 15 56 41 68 57 28 40 22 38 -19 -5z"/>
<path d="M5889 8463 c25 -37 97 -83 127 -82 10 0 1 7 -21 15 -22 8 -60 34 -84
57 -40 38 -42 39 -22 10z"/>
<path d="M548 8352 c-33 -49 -74 -130 -82 -162 -3 -14 11 11 33 55 22 44 49
95 61 113 12 17 20 32 17 32 -2 0 -16 -17 -29 -38z"/>
<path d="M6413 8373 c208 -2 546 -2 750 0 205 1 35 2 -378 2 -412 0 -580 -1
-372 -2z"/>
<path d="M1248 8363 c7 -3 16 -2 19 1 4 3 -2 6 -13 5 -11 0 -14 -3 -6 -6z"/>
<path d="M7548 8363 c7 -3 16 -2 19 1 4 3 -2 6 -13 5 -11 0 -14 -3 -6 -6z"/>
<path d="M1119 8323 c-79 -39 -192 -141 -223 -200 -24 -48 -14 -40 23 17 34
53 128 138 184 166 17 9 54 25 81 35 29 10 42 18 30 18 -12 1 -55 -16 -95 -36z"/>
<path d="M7627 8340 c141 -50 272 -188 319 -335 8 -24 13 -32 13 -19 2 47 -71
168 -143 239 -70 69 -180 136 -222 134 -11 0 5 -9 33 -19z"/>
<path d="M430 8080 c-7 -28 -10 -53 -8 -55 3 -3 10 18 16 47 7 28 11 53 8 55
-2 2 -9 -19 -16 -47z"/>
<path d="M8351 8120 c0 -8 6 -37 13 -65 9 -30 14 -40 14 -25 0 28 -25 114 -27
90z"/>
<path d="M857 8045 c-9 -20 -17 -43 -17 -53 1 -9 10 5 20 32 23 59 21 71 -3
21z"/>
<path d="M412 7985 c0 -16 2 -22 5 -12 2 9 2 23 0 30 -3 6 -5 -1 -5 -18z"/>
<path d="M8382 7975 c0 -16 2 -22 5 -12 2 9 2 23 0 30 -3 6 -5 -1 -5 -18z"/>
<path d="M831 7954 c0 -11 3 -14 6 -6 3 7 2 16 -1 19 -3 4 -6 -2 -5 -13z"/>
<path d="M7961 7944 c0 -11 3 -14 6 -6 3 7 2 16 -1 19 -3 4 -6 -2 -5 -13z"/>
<path d="M403 7880 c0 -36 2 -50 4 -32 2 17 2 47 0 65 -2 17 -4 3 -4 -33z"/>
<path d="M825 7185 c0 -412 1 -583 2 -378 2 204 2 542 0 750 -1 208 -2 41 -2
-372z"/>
<path d="M8395 7175 c0 -418 1 -588 2 -377 2 211 2 553 0 760 -1 207 -2 35 -2
-383z"/>
<path d="M7975 7160 l0 -755 28 -47 c15 -26 42 -57 60 -69 30 -21 29 -19 -9
22 -74 78 -68 16 -74 849 l-6 755 1 -755z"/>
<path d="M401 7784 c0 -11 3 -14 6 -6 3 7 2 16 -1 19 -3 4 -6 -2 -5 -13z"/>
<path d="M403 7680 c0 -47 2 -66 4 -42 2 23 2 61 0 85 -2 23 -4 4 -4 -43z"/>
<path d="M404 7300 c0 -58 1 -81 3 -52 2 28 2 76 0 105 -2 28 -3 5 -3 -53z"/>
<path d="M404 6900 c0 -58 1 -81 3 -52 2 28 2 76 0 105 -2 28 -3 5 -3 -53z"/>
<path d="M404 6498 c1 -101 2 -108 31 -149 63 -90 160 -129 235 -95 19 9 24
12 10 8 -14 -4 -48 -7 -76 -7 -62 0 -121 35 -161 97 -25 36 -29 54 -34 147
l-7 106 2 -107z"/>
<path d="M811 6414 c-1 -25 -40 -85 -79 -120 l-27 -26 32 22 c39 25 87 102 80
127 -4 15 -5 14 -6 -3z"/>
<path d="M8370 6379 c-20 -47 -86 -105 -136 -119 -41 -12 -68 -11 -119 4 -11
4 -6 0 10 -8 58 -29 130 -14 192 39 37 32 81 101 70 111 -2 3 -10 -10 -17 -27z"/>
<path d="M535 4993 c-75 -39 -134 -123 -135 -191 0 -71 57 -154 132 -193 36
-19 115 -19 3868 -19 3753 0 3832 0 3868 19 74 38 132 122 132 191 0 69 -58
153 -132 191 -36 19 -115 19 -3870 19 -3470 -1 -3836 -2 -3863 -17z m7723 -8
c49 -21 79 -51 108 -107 30 -59 30 -90 0 -153 -27 -58 -57 -88 -108 -110 -34
-13 -432 -15 -3861 -15 l-3823 0 -44 23 c-81 41 -131 131 -116 212 10 49 64
116 116 143 l44 22 3823 0 c3429 0 3827 -2 3861 -15z"/>
<path d="M551 3349 c-59 -23 -122 -88 -135 -139 -4 -14 5 -4 18 22 28 50 62
82 115 104 70 29 139 11 208 -56 39 -38 43 -40 24 -13 -51 74 -156 112 -230
82z"/>
<path d="M8120 3345 l-25 -16 25 8 c14 4 48 8 76 8 62 0 121 -35 161 -97 25
-36 29 -54 34 -147 l7 -106 -2 107 c-1 101 -2 108 -31 149 -46 65 -104 102
-167 106 -36 2 -61 -2 -78 -12z"/>
<path d="M8057 3309 c-32 -24 -77 -98 -77 -125 1 -10 7 -2 14 19 14 39 32 64
76 104 31 28 24 29 -13 2z"/>
<path d="M807 3215 c4 -11 10 -360 13 -775 l6 -755 -1 755 c0 610 -3 759 -13
775 l-14 20 9 -20z"/>
<path d="M405 2425 c0 -418 1 -588 2 -377 2 211 2 553 0 760 -1 207 -2 35 -2
-383z"/>
<path d="M7975 2415 c0 -412 1 -583 2 -378 2 204 2 542 0 750 -1 208 -2 41 -2
-372z"/>
<path d="M8394 2700 c0 -58 1 -81 3 -52 2 28 2 76 0 105 -2 28 -3 5 -3 -53z"/>
<path d="M8394 2300 c0 -58 1 -81 3 -52 2 28 2 76 0 105 -2 28 -3 5 -3 -53z"/>
<path d="M8393 1920 c0 -47 2 -66 4 -42 2 23 2 61 0 85 -2 23 -4 4 -4 -43z"/>
<path d="M8391 1814 c0 -11 3 -14 6 -6 3 7 2 16 -1 19 -3 4 -6 -2 -5 -13z"/>
<path d="M8393 1720 c0 -36 2 -50 4 -32 2 17 2 47 0 65 -2 17 -4 3 -4 -33z"/>
<path d="M831 1654 c0 -11 3 -14 6 -6 3 7 2 16 -1 19 -3 4 -6 -2 -5 -13z"/>
<path d="M7961 1644 c0 -11 3 -14 6 -6 3 7 2 16 -1 19 -3 4 -6 -2 -5 -13z"/>
<path d="M412 1625 c0 -16 2 -22 5 -12 2 9 2 23 0 30 -3 6 -5 -1 -5 -18z"/>
<path d="M8382 1615 c0 -16 2 -22 5 -12 2 9 2 23 0 30 -3 6 -5 -1 -5 -18z"/>
<path d="M840 1614 c0 -45 73 -168 141 -236 64 -65 188 -139 229 -137 8 0 -1
6 -21 14 -152 56 -276 179 -329 325 -10 30 -19 45 -20 34z"/>
<path d="M7951 1610 c0 -9 -17 -49 -36 -89 -56 -117 -168 -215 -299 -262 -28
-10 -41 -18 -30 -19 45 0 168 73 235 139 69 69 144 197 136 229 -4 14 -5 14
-6 2z"/>
<path d="M422 1570 c0 -28 25 -114 27 -90 0 8 -6 38 -13 65 -9 30 -14 40 -14
25z"/>
<path d="M8362 1528 c-7 -28 -11 -53 -8 -55 2 -2 9 19 16 47 7 28 10 53 8 55
-3 3 -10 -18 -16 -47z"/>
<path d="M455 1440 c44 -157 203 -363 364 -472 73 -50 174 -101 221 -112 l25
-6 -25 12 c-14 6 -53 24 -87 40 -206 95 -391 290 -473 498 -23 59 -37 81 -25
40z"/>
<path d="M8325 1413 c-17 -46 -61 -132 -93 -180 -8 -13 -12 -23 -9 -23 18 0
136 235 124 246 -2 3 -12 -17 -22 -43z"/>
<path d="M1238 1233 c6 -2 18 -2 25 0 6 3 1 5 -13 5 -14 0 -19 -2 -12 -5z"/>
<path d="M7538 1233 c7 -3 16 -2 19 1 4 3 -2 6 -13 5 -11 0 -14 -3 -6 -6z"/>
<path d="M2035 1220 c847 -6 783 0 859 -77 24 -24 34 -30 27 -16 -15 29 -72
72 -118 89 -31 11 -182 13 -783 11 l-745 -2 760 -5z"/>
<path d="M6003 1219 c-18 -5 -33 -12 -33 -15 0 -4 8 -2 18 2 9 5 357 11 772
14 l755 5 -740 2 c-436 1 -753 -3 -772 -8z"/>
<path d="M5907 1157 c-73 -72 -85 -168 -33 -248 26 -39 93 -96 102 -87 3 3
-11 15 -30 26 -19 11 -47 38 -61 60 -54 82 -42 173 33 247 25 25 42 45 38 45
-3 0 -26 -19 -49 -43z"/>
<path d="M8105 1087 c-60 -62 -92 -98 -70 -80 51 40 199 196 184 192 -2 0 -53
-51 -114 -112z"/>
<path d="M2936 1085 c30 -99 -4 -191 -93 -247 l-38 -23 -775 -5 -775 -5 777 0
776 0 43 30 c90 63 129 161 95 235 -9 19 -14 26 -10 15z"/>
<path d="M7910 935 c-41 -25 -71 -45 -66 -45 11 0 146 79 146 85 0 7 1 8 -80
-40z"/>
<path d="M7775 869 c-22 -10 -29 -16 -15 -13 28 7 80 33 65 33 -5 0 -28 -9
-50 -20z"/>
<path d="M1108 835 c23 -8 64 -16 90 -19 32 -4 22 0 -33 14 -92 22 -120 24
-57 5z"/>
<path d="M7655 835 c-29 -7 -40 -13 -25 -13 14 0 43 5 65 13 51 17 25 17 -40
0z"/>
<path d="M7568 813 c6 -2 18 -2 25 0 6 3 1 5 -13 5 -14 0 -19 -2 -12 -5z"/>
<path d="M6392 803 c207 -2 549 -2 760 0 211 1 41 2 -377 2 -418 0 -590 -1
-383 -2z"/>
</g>
</svg>
